<svg width="64" height="64" viewBox="0 0 64 64" fill="none" xmlns="http://www.w3.org/2000/svg">
<circle cx="32" cy="32" r="30.5" fill="black" stroke="#1DB954" stroke-width="3"/>
<path d="M32.832 45.432C30.984 45.432 29.268 45.096 27.684 44.424C26.1 43.752 24.732 42.84 23.58 41.688C22.428 40.512 21.528 39.132 20.88 37.548C20.232 35.964 19.908 34.272 19.908 32.472V32.4C19.908 30.6 20.232 28.92 20.88 27.36C21.528 25.776 22.428 24.396 23.58 23.22C24.732 22.02 26.112 21.084 27.72 20.412C29.328 19.716 31.104 19.368 33.048 19.368C34.224 19.368 35.292 19.464 36.252 19.656C37.236 19.848 38.124 20.112 38.916 20.448C39.708 20.784 40.44 21.192 41.112 21.672C41.784 22.152 42.408 22.68 42.984 23.256L39.456 27.324C38.472 26.436 37.464 25.74 36.432 25.236C35.424 24.732 34.284 24.48 33.012 24.48C31.956 24.48 30.972 24.684 30.06 25.092C29.172 25.5 28.404 26.064 27.756 26.784C27.108 27.504 26.604 28.344 26.244 29.304C25.884 30.24 25.704 31.248 25.704 32.328V32.4C25.704 33.48 25.884 34.5 26.244 35.46C26.604 36.42 27.096 37.26 27.72 37.98C28.368 38.7 29.136 39.276 30.024 39.708C30.936 40.116 31.932 40.32 33.012 40.32C34.452 40.32 35.664 40.056 36.648 39.528C37.656 39 38.652 38.28 39.636 37.368L43.164 40.932C42.516 41.628 41.844 42.252 41.148 42.804C40.452 43.356 39.684 43.836 38.844 44.244C38.028 44.628 37.128 44.916 36.144 45.108C35.16 45.324 34.056 45.432 32.832 45.432Z" fill="#1DB954"/>
</svg>
