<svg width="184" height="126" viewBox="0 0 184 126" fill="none" xmlns="http://www.w3.org/2000/svg">
<path d="M179.028 98.128C178.692 98.128 178.376 98.068 178.08 97.948C177.792 97.82 177.544 97.652 177.336 97.444C177.128 97.228 176.964 96.976 176.844 96.688C176.724 96.4 176.664 96.092 176.664 95.764V95.74C176.664 95.412 176.72 95.104 176.832 94.816C176.952 94.528 177.116 94.276 177.324 94.06C177.54 93.844 177.796 93.672 178.092 93.544C178.388 93.416 178.712 93.352 179.064 93.352C179.504 93.352 179.864 93.42 180.144 93.556C180.424 93.684 180.672 93.852 180.888 94.06L180.228 94.828C180.052 94.668 179.868 94.544 179.676 94.456C179.492 94.36 179.288 94.312 179.064 94.312C178.872 94.312 178.696 94.352 178.536 94.432C178.376 94.504 178.236 94.604 178.116 94.732C177.996 94.86 177.904 95.012 177.84 95.188C177.776 95.356 177.744 95.536 177.744 95.728V95.752C177.744 95.944 177.776 96.128 177.84 96.304C177.904 96.472 177.992 96.62 178.104 96.748C178.224 96.876 178.364 96.98 178.524 97.06C178.692 97.132 178.872 97.168 179.064 97.168C179.32 97.168 179.536 97.12 179.712 97.024C179.888 96.92 180.068 96.788 180.252 96.628L180.924 97.3C180.684 97.556 180.42 97.76 180.132 97.912C179.844 98.056 179.476 98.128 179.028 98.128ZM178.968 99.664C179.52 99.664 180.028 99.564 180.492 99.364C180.964 99.156 181.372 98.88 181.716 98.536C182.06 98.184 182.328 97.772 182.52 97.3C182.72 96.828 182.82 96.328 182.82 95.8V95.776C182.82 95.248 182.72 94.752 182.52 94.288C182.328 93.816 182.06 93.408 181.716 93.064C181.38 92.712 180.976 92.436 180.504 92.236C180.04 92.036 179.536 91.936 178.992 91.936C178.44 91.936 177.928 92.04 177.456 92.248C176.992 92.448 176.588 92.724 176.244 93.076C175.9 93.42 175.628 93.828 175.428 94.3C175.236 94.772 175.14 95.272 175.14 95.8V95.824C175.14 96.352 175.236 96.852 175.428 97.324C175.62 97.788 175.888 98.196 176.232 98.548C176.576 98.892 176.98 99.164 177.444 99.364C177.916 99.564 178.424 99.664 178.968 99.664ZM178.968 100.144C178.36 100.144 177.792 100.032 177.264 99.808C176.736 99.576 176.276 99.264 175.884 98.872C175.5 98.48 175.196 98.024 174.972 97.504C174.748 96.976 174.636 96.416 174.636 95.824V95.8C174.636 95.208 174.748 94.652 174.972 94.132C175.196 93.604 175.504 93.144 175.896 92.752C176.288 92.352 176.748 92.036 177.276 91.804C177.812 91.572 178.384 91.456 178.992 91.456C179.6 91.456 180.168 91.572 180.696 91.804C181.224 92.028 181.68 92.336 182.064 92.728C182.456 93.12 182.764 93.58 182.988 94.108C183.212 94.628 183.324 95.184 183.324 95.776V95.8C183.324 96.392 183.212 96.952 182.988 97.48C182.764 98 182.456 98.46 182.064 98.86C181.672 99.252 181.208 99.564 180.672 99.796C180.144 100.028 179.576 100.144 178.968 100.144Z" fill="#1DB954"/>
<path d="M19.776 117.576C17.312 117.576 15.024 117.128 12.912 116.232C10.8 115.336 8.976 114.12 7.44 112.584C5.904 111.016 4.704 109.176 3.84 107.064C2.976 104.952 2.544 102.696 2.544 100.296V100.2C2.544 97.8 2.976 95.56 3.84 93.48C4.704 91.368 5.904 89.528 7.44 87.96C8.976 86.36 10.816 85.112 12.96 84.216C15.104 83.288 17.472 82.824 20.064 82.824C21.632 82.824 23.056 82.952 24.336 83.208C25.648 83.464 26.832 83.816 27.888 84.264C28.944 84.712 29.92 85.256 30.816 85.896C31.712 86.536 32.544 87.24 33.312 88.008L28.608 93.432C27.296 92.248 25.952 91.32 24.576 90.648C23.232 89.976 21.712 89.64 20.016 89.64C18.608 89.64 17.296 89.912 16.08 90.456C14.896 91 13.872 91.752 13.008 92.712C12.144 93.672 11.472 94.792 10.992 96.072C10.512 97.32 10.272 98.664 10.272 100.104V100.2C10.272 101.64 10.512 103 10.992 104.28C11.472 105.56 12.128 106.68 12.96 107.64C13.824 108.6 14.848 109.368 16.032 109.944C17.248 110.488 18.576 110.76 20.016 110.76C21.936 110.76 23.552 110.408 24.864 109.704C26.208 109 27.536 108.04 28.848 106.824L33.552 111.576C32.688 112.504 31.792 113.336 30.864 114.072C29.936 114.808 28.912 115.448 27.792 115.992C26.704 116.504 25.504 116.888 24.192 117.144C22.88 117.432 21.408 117.576 19.776 117.576ZM39.0375 81.96H46.3335V117H39.0375V81.96ZM65.9059 111.288C66.9619 111.288 67.8899 111.112 68.6899 110.76C69.5219 110.376 70.2259 109.864 70.8019 109.224C71.3779 108.584 71.8099 107.848 72.0979 107.016C72.4179 106.152 72.5779 105.24 72.5779 104.28V104.184C72.5779 103.224 72.4179 102.328 72.0979 101.496C71.7779 100.632 71.3139 99.88 70.7059 99.24C70.0979 98.568 69.3779 98.04 68.5459 97.656C67.7139 97.272 66.8019 97.08 65.8099 97.08C64.7539 97.08 63.8099 97.272 62.9779 97.656C62.1779 98.008 61.4899 98.504 60.9139 99.144C60.3379 99.784 59.8899 100.536 59.5699 101.4C59.2819 102.232 59.1379 103.128 59.1379 104.088V104.184C59.1379 105.144 59.2979 106.056 59.6179 106.92C59.9379 107.752 60.4019 108.504 61.0099 109.176C61.6179 109.816 62.3219 110.328 63.1219 110.712C63.9539 111.096 64.8819 111.288 65.9059 111.288ZM65.8099 117.576C63.8259 117.576 61.9859 117.24 60.2899 116.568C58.5939 115.864 57.1219 114.92 55.8739 113.736C54.6579 112.52 53.6979 111.112 52.9939 109.512C52.2899 107.88 51.9379 106.136 51.9379 104.28V104.184C51.9379 102.328 52.2899 100.6 52.9939 99C53.6979 97.368 54.6739 95.944 55.9219 94.728C57.1699 93.512 58.6419 92.552 60.3379 91.848C62.0339 91.144 63.8899 90.792 65.9059 90.792C67.8899 90.792 69.7299 91.144 71.4259 91.848C73.1219 92.52 74.5779 93.464 75.7939 94.68C77.0419 95.864 78.0179 97.272 78.7219 98.904C79.4259 100.504 79.7779 102.232 79.7779 104.088V104.184C79.7779 106.04 79.4259 107.784 78.7219 109.416C78.0179 111.016 77.0419 112.424 75.7939 113.64C74.5459 114.856 73.0739 115.816 71.3779 116.52C69.6819 117.224 67.8259 117.576 65.8099 117.576ZM85.0609 91.272H92.3569V94.92C92.7729 94.376 93.2209 93.864 93.7009 93.384C94.2129 92.872 94.7729 92.424 95.3809 92.04C95.9889 91.656 96.6609 91.352 97.3969 91.128C98.1329 90.904 98.9649 90.792 99.8929 90.792C102.677 90.792 104.821 91.64 106.325 93.336C107.861 95.032 108.629 97.368 108.629 100.344V117H101.333V102.648C101.333 100.92 100.949 99.624 100.181 98.76C99.4129 97.864 98.3249 97.416 96.9169 97.416C95.5089 97.416 94.3889 97.864 93.5569 98.76C92.7569 99.624 92.3569 100.92 92.3569 102.648V117H85.0609V91.272ZM115.303 91.272H122.599V117H115.303V91.272ZM115.111 81.96H122.791V88.44H115.111V81.96ZM130.7 97.512H127.676V91.512H130.7V89.88C130.7 87.096 131.388 85.016 132.764 83.64C134.108 82.296 136.076 81.624 138.668 81.624C139.82 81.624 140.796 81.688 141.596 81.816C142.428 81.944 143.18 82.12 143.852 82.344V88.392C143.308 88.2 142.78 88.056 142.268 87.96C141.756 87.832 141.18 87.768 140.54 87.768C138.78 87.768 137.9 88.696 137.9 90.552V91.56H143.804V97.512H137.996V117H130.7V97.512ZM153.924 124.824C152.58 124.824 151.396 124.664 150.372 124.344C149.348 124.024 148.372 123.592 147.444 123.048L149.892 117.768C150.372 118.056 150.884 118.296 151.428 118.488C152.004 118.68 152.532 118.776 153.012 118.776C153.652 118.776 154.148 118.648 154.5 118.392C154.884 118.168 155.236 117.736 155.556 117.096L145.476 91.272H153.204L159.06 108.792L164.676 91.272H172.26L162.372 117.624C161.892 118.936 161.38 120.04 160.836 120.936C160.292 121.864 159.684 122.616 159.012 123.192C158.372 123.768 157.636 124.184 156.804 124.44C155.972 124.696 155.012 124.824 153.924 124.824Z" fill="#1DB954"/>
<circle cx="92" cy="32" r="30.5" stroke="#1DB954" stroke-width="3"/>
<path d="M92.832 45.432C90.984 45.432 89.268 45.096 87.684 44.424C86.1 43.752 84.732 42.84 83.58 41.688C82.428 40.512 81.528 39.132 80.88 37.548C80.232 35.964 79.908 34.272 79.908 32.472V32.4C79.908 30.6 80.232 28.92 80.88 27.36C81.528 25.776 82.428 24.396 83.58 23.22C84.732 22.02 86.112 21.084 87.72 20.412C89.328 19.716 91.104 19.368 93.048 19.368C94.224 19.368 95.292 19.464 96.252 19.656C97.236 19.848 98.124 20.112 98.916 20.448C99.708 20.784 100.44 21.192 101.112 21.672C101.784 22.152 102.408 22.68 102.984 23.256L99.456 27.324C98.472 26.436 97.464 25.74 96.432 25.236C95.424 24.732 94.284 24.48 93.012 24.48C91.956 24.48 90.972 24.684 90.06 25.092C89.172 25.5 88.404 26.064 87.756 26.784C87.108 27.504 86.604 28.344 86.244 29.304C85.884 30.24 85.704 31.248 85.704 32.328V32.4C85.704 33.48 85.884 34.5 86.244 35.46C86.604 36.42 87.096 37.26 87.72 37.98C88.368 38.7 89.136 39.276 90.024 39.708C90.936 40.116 91.932 40.32 93.012 40.32C94.452 40.32 95.664 40.056 96.648 39.528C97.656 39 98.652 38.28 99.636 37.368L103.164 40.932C102.516 41.628 101.844 42.252 101.148 42.804C100.452 43.356 99.684 43.836 98.844 44.244C98.028 44.628 97.128 44.916 96.144 45.108C95.16 45.324 94.056 45.432 92.832 45.432Z" fill="#1DB954"/>
</svg>
